<svg width="91" height="30" viewBox="0 0 91 30" fill="none" xmlns="http://www.w3.org/2000/svg">
<path d="M22.2936 11.4909L16.2385 2.40837C15.9632 2.13314 15.5505 1.85791 15.1376 1.85791C14.7248 1.85791 14.3119 1.99552 14.0367 2.40837L7.98165 11.4909H1.37615C0.550459 11.4909 0 12.0414 0 12.8671C0 13.0047 0 13.1423 0 13.2799L3.44037 26.0781C3.7156 27.179 4.81651 28.1423 6.05505 28.1423H23.945C25.1835 28.1423 26.2844 27.3166 26.5596 26.0781L30 13.2799C30 13.1423 30 13.0047 30 12.8671C30 12.0414 29.4495 11.4909 28.6239 11.4909H22.2936ZM11.0092 11.4909L15.1376 5.43589L19.2661 11.4909H11.0092ZM15.1376 22.5001C13.6239 22.5001 12.3853 21.2616 12.3853 19.7478C12.3853 18.2341 13.6239 16.9955 15.1376 16.9955C16.6514 16.9955 17.8899 18.2341 17.8899 19.7478C17.8899 21.2616 16.6514 22.5001 15.1376 22.5001Z" fill="#212121"/>
<path d="M45.25 17.5L58 10.1388L58 24.8612L45.25 17.5Z" fill="#D7B399"/>
<path d="M58 10H91V25H58V10Z" fill="#D7B399"/>
<path d="M73.7796 16.756C74.9636 16.756 75.8356 16.992 76.3956 17.464C76.9636 17.936 77.2476 18.568 77.2476 19.36C77.2476 19.872 77.1196 20.34 76.8636 20.764C76.6076 21.18 76.2156 21.516 75.6876 21.772C75.1676 22.02 74.5236 22.144 73.7556 22.144C73.1636 22.144 72.5796 22.068 72.0036 21.916C71.4356 21.756 70.9516 21.532 70.5516 21.244L71.3196 19.756C71.6396 19.996 72.0076 20.184 72.4236 20.32C72.8396 20.448 73.2676 20.512 73.7076 20.512C74.1956 20.512 74.5796 20.416 74.8596 20.224C75.1396 20.032 75.2796 19.764 75.2796 19.42C75.2796 19.06 75.1316 18.788 74.8356 18.604C74.5476 18.42 74.0436 18.328 73.3236 18.328H71.1756L71.6076 13.6H76.7316V15.16H73.2276L73.0956 16.756H73.7796Z" fill="white"/>
</svg>
